<svg width="30" height="40" viewBox="0 0 30 40" fill="none" xmlns="http://www.w3.org/2000/svg">
<path d="M14.9999 19C14.1249 19 13.2499 19.3375 12.5874 20L4.4374 28.15C4.0749 28.5125 4.0749 29.1125 4.4374 29.475C4.7999 29.8375 5.3999 29.8375 5.7624 29.475L13.9124 21.325C14.5124 20.725 15.4874 20.725 16.0874 21.325L24.2374 29.475C24.5999 29.8375 25.1999 29.8375 25.5624 29.475C25.9249 29.1125 25.9249 28.5125 25.5624 28.15L17.4124 20C16.7499 19.3375 15.8749 19 14.9999 19Z" fill="white"/>
<path d="M14.9999 8.99995C14.1249 8.99995 13.2499 9.33745 12.5874 9.99995L4.4374 18.15C4.0749 18.5125 4.0749 19.1125 4.4374 19.475C4.7999 19.8375 5.3999 19.8375 5.7624 19.475L13.9124 11.325C14.5124 10.725 15.4874 10.725 16.0874 11.325L24.2374 19.475C24.5999 19.8375 25.1999 19.8375 25.5624 19.475C25.9249 19.1125 25.9249 18.5125 25.5624 18.15L17.4124 9.99995C16.7499 9.33745 15.8749 8.99995 14.9999 8.99995Z" fill="white"/>
</svg>
