<svg width="30" height="40" viewBox="0 0 30 40" fill="none" xmlns="http://www.w3.org/2000/svg">
<path d="M14.9999 21C14.1249 21 13.2499 20.6625 12.5874 20L4.4374 11.85C4.0749 11.4875 4.0749 10.8875 4.4374 10.525C4.7999 10.1625 5.3999 10.1625 5.7624 10.525L13.9124 18.675C14.5124 19.275 15.4874 19.275 16.0874 18.675L24.2374 10.525C24.5999 10.1625 25.1999 10.1625 25.5624 10.525C25.9249 10.8875 25.9249 11.4875 25.5624 11.85L17.4124 20C16.7499 20.6625 15.8749 21 14.9999 21Z" fill="white"/>
<path d="M14.9999 31C14.1249 31 13.2499 30.6625 12.5874 30L4.4374 21.85C4.0749 21.4875 4.0749 20.8875 4.4374 20.525C4.7999 20.1625 5.3999 20.1625 5.7624 20.525L13.9124 28.675C14.5124 29.275 15.4874 29.275 16.0874 28.675L24.2374 20.525C24.5999 20.1625 25.1999 20.1625 25.5624 20.525C25.9249 20.8875 25.9249 21.4875 25.5624 21.85L17.4124 30C16.7499 30.6625 15.8749 31 14.9999 31Z" fill="white"/>
</svg>
